<svg width="36" height="35" viewBox="0 0 36 35" fill="none" xmlns="http://www.w3.org/2000/svg">
<path d="M33.6035 10.7281C32.9578 9.25404 32.103 7.88037 31.0656 6.64919C29.532 4.77486 27.6181 3.24599 25.45 2.1632C23.2818 1.08042 20.9085 0.468272 18.4862 0.36705C16.064 0.265828 13.6477 0.677824 11.3965 1.57593C9.14526 2.47403 7.11009 3.83788 5.42491 5.5777C3.73974 7.31752 2.44279 9.39388 1.61941 11.6701C0.796034 13.9463 0.464903 16.3708 0.647815 18.784C0.830727 21.1972 1.52353 23.5443 2.68064 25.6709C3.83774 27.7976 5.4329 29.6555 7.36113 31.1224C8.59839 32.0824 9.96552 32.8629 11.4219 33.4405C13.4637 34.2758 15.6489 34.706 17.8556 34.7072C22.4104 34.6972 26.7755 32.8848 29.9939 29.6673C33.2123 26.4499 35.0215 22.0899 35.0248 17.5431C35.0281 15.1977 34.5442 12.8772 33.6035 10.7281ZM17.8429 3.84971C19.8244 3.8495 21.7821 4.28184 23.5786 5.11644C23.1405 5.3054 22.6799 5.43738 22.2081 5.50913C20.6557 5.73346 19.2175 6.45294 18.1083 7.56018C16.9991 8.66742 16.2783 10.103 16.0536 11.6528C15.955 12.5219 15.559 13.3305 14.9325 13.942C14.306 14.5535 13.4874 14.9306 12.6147 15.0096C11.0622 15.2339 9.62405 15.9534 8.51485 17.0607C7.40564 18.1679 6.68489 19.6035 6.46016 21.1532C6.38407 21.9796 6.03085 22.7562 5.45767 23.3573C4.4687 21.2714 4.02443 18.9696 4.1662 16.6661C4.30797 14.3627 5.03117 12.1325 6.2685 10.183C7.50584 8.23361 9.2171 6.62831 11.243 5.51654C13.2689 4.40477 15.5437 3.82266 17.8556 3.82438L17.8429 3.84971ZM7.34844 26.4102C7.50072 26.2708 7.653 26.1441 7.80527 25.9921C8.93422 24.8995 9.65889 23.4572 9.86101 21.9006C9.94297 21.0256 10.3343 20.2083 10.965 19.5952C11.5719 18.9645 12.3888 18.5771 13.2619 18.5058C14.8143 18.2814 16.2525 17.562 17.3617 16.4547C18.4709 15.3475 19.1917 13.9119 19.4164 12.3621C19.4713 11.4469 19.8647 10.5847 20.5204 9.94268C21.1423 9.32433 21.9669 8.95096 22.8426 8.8913C24.2689 8.69541 25.599 8.0625 26.6496 7.07988C27.8458 8.07055 28.8593 9.26232 29.6443 10.6014C29.5961 10.6664 29.5408 10.7259 29.4794 10.7787C28.8737 11.4149 28.0578 11.8108 27.1825 11.8934C25.6285 12.1139 24.1881 12.8321 23.0782 13.94C21.9683 15.048 21.2488 16.4858 21.028 18.0371C20.9386 18.9091 20.5499 19.7235 19.9278 20.3422C19.3056 20.9609 18.4884 21.3459 17.6145 21.4319C16.0575 21.6545 14.6139 22.3726 13.4983 23.4794C12.3827 24.5862 11.6545 26.0227 11.4219 27.5756C11.3536 28.1946 11.1406 28.7891 10.8001 29.311C9.49808 28.5393 8.33201 27.5593 7.34844 26.4102ZM17.8429 31.2997C16.5552 31.3011 15.2737 31.122 14.0359 30.7677C14.4594 29.9798 14.7346 29.1212 14.8481 28.2343C14.937 27.3641 15.3239 26.5513 15.9435 25.9328C16.563 25.3144 17.3773 24.9282 18.2489 24.8394C19.8037 24.6176 21.2447 23.8992 22.3564 22.7918C23.4682 21.6843 24.1908 20.2473 24.4162 18.6958C24.5051 17.8257 24.892 17.0128 25.5115 16.3944C26.1311 15.7759 26.9454 15.3897 27.817 15.3009C28.987 15.149 30.1022 14.7142 31.0656 14.0342C31.6005 16.0583 31.6639 18.1779 31.2508 20.2302C30.8378 22.2826 29.9592 24.2132 28.6826 25.874C27.406 27.5348 25.7653 28.8817 23.8863 29.8112C22.0073 30.7407 19.9399 31.2283 17.8429 31.2364V31.2997Z" fill="#1E1B1B"/>
</svg>
